<svg xmlns="http://www.w3.org/2000/svg" width="55" height="49.5" viewBox="0 0 55 49.5">
  <g id="ic_photo_camera_48px" transform="translate(-4 -4)">
    <circle id="Ellipse_410" data-name="Ellipse 410" cx="10.4" cy="10.4" r="10.4" transform="translate(21.1 20.824)" fill="#dcf4fd"/>
    <path id="Path_10868" data-name="Path 10868" d="M23.25,4,18.218,9.5H9.5A5.5,5.5,0,0,0,4,15V48a5.5,5.5,0,0,0,5.5,5.5h44A5.5,5.5,0,0,0,59,48V15a5.5,5.5,0,0,0-5.5-5.5H44.782L39.75,4ZM31.5,45.25A13.75,13.75,0,1,1,45.25,31.5,13.755,13.755,0,0,1,31.5,45.25Z" fill="#dcf4fd"/>
  </g>
</svg>
