<svg id="camera_2_" data-name="camera (2)" xmlns="http://www.w3.org/2000/svg" width="22.058" height="17.361" viewBox="0 0 22.058 17.361">
  <g id="Group_1530" data-name="Group 1530" transform="translate(0 0)">
    <g id="Group_1529" data-name="Group 1529">
      <path id="Path_1200" data-name="Path 1200" d="M21.324,47.5a2.372,2.372,0,0,0-1.74-.734H16.1v-.042a1.883,1.883,0,0,0-.566-1.363,1.919,1.919,0,0,0-1.363-.566H7.884a1.933,1.933,0,0,0-1.95,1.929v.042H2.474a2.372,2.372,0,0,0-1.74.734A2.493,2.493,0,0,0,0,49.245V59.687a2.372,2.372,0,0,0,.734,1.74,2.493,2.493,0,0,0,1.74.734h17.11a2.372,2.372,0,0,0,1.74-.734,2.493,2.493,0,0,0,.734-1.74V49.245A2.372,2.372,0,0,0,21.324,47.5Zm-.356,12.182h-.021a1.36,1.36,0,0,1-1.363,1.363H2.474a1.36,1.36,0,0,1-1.363-1.363V49.245a1.36,1.36,0,0,1,1.363-1.363H6.521a.564.564,0,0,0,.566-.566v-.608A.789.789,0,0,1,7.9,45.89h6.269a.789.789,0,0,1,.818.818v.608a.564.564,0,0,0,.566.566H19.6a1.36,1.36,0,0,1,1.363,1.363Z" transform="translate(0 -44.8)" fill="#0dbafc"/>
      <path id="Path_1201" data-name="Path 1201" d="M117.158,130.8a5.154,5.154,0,1,0,3.648,1.51A5.167,5.167,0,0,0,117.158,130.8Zm2.852,8.031a4.05,4.05,0,0,1-5.7,0,4.008,4.008,0,0,1-1.174-2.852,4.1,4.1,0,0,1,1.174-2.852,4.008,4.008,0,0,1,2.852-1.174,4.1,4.1,0,0,1,2.852,1.174,4.008,4.008,0,0,1,1.174,2.852A3.923,3.923,0,0,1,120.01,138.831Z" transform="translate(-106.129 -126.292)" fill="#0dbafc"/>
      <circle id="Ellipse_135" data-name="Ellipse 135" cx="1.027" cy="1.027" r="1.027" transform="translate(17.466 4.487)" fill="#0dbafc"/>
    </g>
  </g>
</svg>
