<svg xmlns="http://www.w3.org/2000/svg" width="20" height="20.002" viewBox="0 0 20 20.002">
  <g id="chat_1_" data-name="chat (1)" transform="translate(-0.499 -0.002)">
    <path id="Path_123" data-name="Path 123" d="M20.5,9.6A9.82,9.82,0,0,0,10.5,0,9.82,9.82,0,0,0,.5,9.6v.016a9.439,9.439,0,0,0,3.138,6.979v2.418a.98.98,0,0,0,.98.993.975.975,0,0,0,.517-.149l1.943-1.214a10.262,10.262,0,0,0,3.4.578h.015l.192,0a9.82,9.82,0,0,0,9.813-9.6V9.6Zm-3.835,6.046a8.592,8.592,0,0,1-6.154,2.4H10.5a9.1,9.1,0,0,1-3.161-.558.854.854,0,0,0-.751.077L4.81,18.674V16.45a.858.858,0,0,0-.3-.648A8.265,8.265,0,0,1,1.673,9.617a8.647,8.647,0,0,1,8.815-8.44h.023a8.647,8.647,0,0,1,8.815,8.435,8.592,8.592,0,0,1-2.662,6.032Zm0,0" transform="translate(0 0)" fill="#39363d"/>
    <path id="Path_124" data-name="Path 124" d="M140.639,174.273h-8.595a.587.587,0,0,0,0,1.173h8.595a.587.587,0,1,0,0-1.173Zm0,0" transform="translate(-125.842 -167.463)" fill="#0dbafc"/>
    <path id="Path_125" data-name="Path 125" d="M140.639,240.688h-8.595a.587.587,0,0,0,0,1.173h8.595a.587.587,0,1,0,0-1.173Zm0,0" transform="translate(-125.842 -231.283)" fill="#0dbafc"/>
    <path id="Path_126" data-name="Path 126" d="M248.106,307.1H243.88a.587.587,0,0,0,0,1.173h4.226a.587.587,0,1,0,0-1.173Zm0,0" transform="translate(-233.309 -295.103)" fill="#0dbafc"/>
  </g>
</svg>
