<svg xmlns="http://www.w3.org/2000/svg" width="18" height="20" viewBox="0 0 18 20">
  <g id="icon--task" transform="translate(0 0)">
    <path id="_-Icon-Сolor" data-name="🎨-Icon-Сolor" d="M8,2.172V4a1,1,0,0,0,2,0V2.172a3,3,0,0,1,1.907,2.1A2.639,2.639,0,0,1,12,5,3,3,0,0,1,6,5a2.642,2.642,0,0,1,.091-.712c0-.012,0-.023.007-.035l0-.015A2.975,2.975,0,0,1,8,2.172M15,3H13.578A4.995,4.995,0,0,0,4.42,3H3A3,3,0,0,0,0,6V17a3,3,0,0,0,3,3H15a3,3,0,0,0,3-3V6a3,3,0,0,0-3-3" transform="translate(0 0)" fill="#0dbafc" fill-rule="evenodd"/>
  </g>
</svg>
