<svg xmlns="http://www.w3.org/2000/svg" width="18" height="15.997" viewBox="0 0 18 15.997">
  <path id="edit" d="M12.581,2.7,15.4,5.516a.306.306,0,0,1,0,.431L8.575,12.772l-2.9.322A.608.608,0,0,1,5,12.422l.322-2.9L12.15,2.7A.306.306,0,0,1,12.581,2.7Zm5.062-.716L16.119.456a1.222,1.222,0,0,0-1.725,0L13.288,1.562a.306.306,0,0,0,0,.431l2.819,2.819a.306.306,0,0,0,.431,0l1.106-1.106a1.222,1.222,0,0,0,0-1.725ZM12,10.916V14.1H2V4.1H9.181a.384.384,0,0,0,.266-.109l1.25-1.25a.375.375,0,0,0-.266-.641H1.5A1.5,1.5,0,0,0,0,3.6v11a1.5,1.5,0,0,0,1.5,1.5h11A1.5,1.5,0,0,0,14,14.6V9.666a.376.376,0,0,0-.641-.266l-1.25,1.25A.384.384,0,0,0,12,10.916Z" transform="translate(0 -0.1)" fill="#fff"/>
</svg>
