<svg id="notification" xmlns="http://www.w3.org/2000/svg" width="16.22" height="21.293" viewBox="0 0 16.22 21.293">
  <g id="Group_3896" data-name="Group 3896" transform="translate(0)">
    <path id="Path_117" data-name="Path 117" d="M76.942,14.827l-.97-.647V8.567a6.871,6.871,0,0,0-6.238-6.833V.624a.624.624,0,0,0-1.248,0v1.11a6.871,6.871,0,0,0-6.238,6.833v5.613l-.97.647a.624.624,0,0,0-.278.519v2.5a.624.624,0,0,0,.624.624h4.112a3.427,3.427,0,0,0,6.748,0H76.6a.624.624,0,0,0,.624-.624v-2.5A.624.624,0,0,0,76.942,14.827ZM69.11,20.046a2.19,2.19,0,0,1-2.094-1.58H71.2A2.19,2.19,0,0,1,69.11,20.046Zm6.862-2.828H62.248V15.68l.97-.647a.624.624,0,0,0,.278-.519V8.567a5.614,5.614,0,0,1,11.229,0v5.947a.624.624,0,0,0,.278.519l.97.647Z" transform="translate(-61)" fill="#39363d"/>
  </g>
</svg>
