<svg xmlns="http://www.w3.org/2000/svg" width="32.147" height="31.736" viewBox="0 0 32.147 31.736">
  <g id="send_message" transform="translate(0 15.646) rotate(-40)">
    <g id="Group_1531" data-name="Group 1531" transform="translate(0 0)">
      <path id="Path_1202" data-name="Path 1202" d="M22.892,8.331,3.253.181A2.351,2.351,0,0,0,.074,2.933L2,10.5.074,18.07a2.351,2.351,0,0,0,3.179,2.752l19.639-8.149a2.35,2.35,0,0,0,0-4.342Zm-.547,3.025L2.706,19.5a.924.924,0,0,1-1.25-1.082l1.838-7.208h7.087a.713.713,0,0,0,0-1.426H3.294L1.456,2.581A.924.924,0,0,1,2.706,1.5L22.345,9.648a.924.924,0,0,1,0,1.707Z" fill="#0dbafc"/>
    </g>
  </g>
</svg>
