<svg xmlns="http://www.w3.org/2000/svg" width="33" height="22.786" viewBox="0 0 33 22.786">
  <g id="icons8-stripe" transform="translate(-3 -9)">
    <path id="Path_11024" data-name="Path 11024" d="M33.458,31.786H5.542A2.485,2.485,0,0,1,3,29.309V11.536A2.534,2.534,0,0,1,5.542,9H33.457A2.535,2.535,0,0,1,36,11.536V29.309A2.485,2.485,0,0,1,33.458,31.786Z" transform="translate(0)" fill="#03a9f4"/>
    <path id="Path_11025" data-name="Path 11025" d="M27.973,21.289c.048-.773.249-1.133.65-1.133.385,0,.6.37.622,1.133Zm2.884.462a3.339,3.339,0,0,0-.548-2.026,1.989,1.989,0,0,0-1.657-.737c-1.466,0-2.385,1.086-2.385,2.825A2.879,2.879,0,0,0,27,23.979a2.564,2.564,0,0,0,1.847.627,3.508,3.508,0,0,0,1.848-.46L30.5,22.961a3.037,3.037,0,0,1-1.471.359.931.931,0,0,1-1.056-.972h2.857A5.966,5.966,0,0,0,30.857,21.751Zm-6.95,1.122a.724.724,0,0,1-.625.407,1.1,1.1,0,0,1-.47-.1V20.567a.973.973,0,0,1,.662-.345c.443,0,.661.478.661,1.417A2.711,2.711,0,0,1,23.907,22.874Zm1.444-3.388a1.542,1.542,0,0,0-1.3-.6,1.81,1.81,0,0,0-1.358.657l-.1-.551H21.058v7.72l1.742-.292.012-1.966a2.714,2.714,0,0,0,.794.13,2.079,2.079,0,0,0,1.57-.65,3.423,3.423,0,0,0,.7-2.36A3.4,3.4,0,0,0,25.351,19.486Zm-6.732-.492h1.737v5.613H18.619Zm.883-.544a.925.925,0,1,0-.929-.922A.92.92,0,0,0,19.5,18.449Zm-1.63.468a1.044,1.044,0,0,0-1.047.724l-.105-.647H15.195v5.611h1.743V20.919a1.128,1.128,0,0,1,.957-.365,1.971,1.971,0,0,1,.308.018V18.961A1.52,1.52,0,0,0,17.871,18.918Zm-3.359,1.373.216-1.3H13.6V17.416l-1.5.249-.217,1.328-.526.086-.195,1.212h.719v2.544a1.719,1.719,0,0,0,.506,1.4,2.011,2.011,0,0,0,1.294.346,3.016,3.016,0,0,0,.911-.129V23.079a2.153,2.153,0,0,1-.5.081c-.337,0-.5-.176-.5-.579V20.288h.909Zm-5.021.839c-.5-.186-.785-.332-.785-.564,0-.193.161-.3.454-.3a3.326,3.326,0,0,1,1.421.382l.211-1.284a3.966,3.966,0,0,0-1.715-.371,2.175,2.175,0,0,0-1.414.436A1.541,1.541,0,0,0,7.1,20.678c0,.946.579,1.347,1.521,1.687.6.216.81.37.81.61s-.192.361-.558.361a3.9,3.9,0,0,1-1.634-.494l-.2,1.3a4.266,4.266,0,0,0,1.93.463,2.316,2.316,0,0,0,1.476-.426,1.582,1.582,0,0,0,.593-1.338c0-.971-.592-1.375-1.547-1.713Z" transform="translate(1.02 -1.629)" fill="#fff"/>
  </g>
</svg>
